# xmcd CD database file
#
# Track frame offsets:
#	150
#	16321
#	44280
#	77179
#	96227
#	127070
#	151765
#	177474
#	195555
#	239336
#	243841
#	261744
#	270507
#	296406
#
# Disc length: 4187 seconds
#
# Revision: 0
# Processed by: cddbd v1.4PL0 Copyright (c) Steve Scherf et al.
# Submitted via: CDex 1.50
#
DISCID=c210590e
DTITLE=The Land Of Nod - Archive:02 CD:1
DYEAR=2001
DGENRE=New Age
TTITLE0=Floating Around In The Bubblebuzz
TTITLE1=Seeing Into The Great Void
TTITLE2=Revoid (Bass Cadets Remix)
TTITLE3=Interceptor #1 (Demo)
TTITLE4=Interceptor #2 (Demo)
TTITLE5=Spiral
TTITLE6=Exponential
TTITLE7=Chronicle Blueprint #1
TTITLE8=Masaki
TTITLE9=Escape Velocity
TTITLE10=Chronicle Blueprint #3 (Live)
TTITLE11=C.O.B.E.
TTITLE12=Ice Station Nod (Original Version)
TTITLE13=Bubblebuzz
EXTD=YEAR: 2001
EXTT0=
EXTT1=
EXTT2=
EXTT3=
EXTT4=
EXTT5=
EXTT6=
EXTT7=
EXTT8=
EXTT9=
EXTT10=
EXTT11=
EXTT12=
EXTT13=
PLAYORDER=
